<svg xmlns="http://www.w3.org/2000/svg" xmlns:xlink="http://www.w3.org/1999/xlink" width="500" zoomAndPan="magnify" viewBox="0 0 375 374.999991" height="500" preserveAspectRatio="xMidYMid meet" version="1.2"><defs><clipPath id="786858b8cf"><path d="M 2.558594 2.558594 L 372.441406 2.558594 L 372.441406 372.441406 L 2.558594 372.441406 Z M 2.558594 2.558594 "/></clipPath><clipPath id="7c3d7e14c6"><path d="M 187.5 2.558594 C 85.359375 2.558594 2.558594 85.359375 2.558594 187.5 C 2.558594 289.640625 85.359375 372.441406 187.5 372.441406 C 289.640625 372.441406 372.441406 289.640625 372.441406 187.5 C 372.441406 85.359375 289.640625 2.558594 187.5 2.558594 Z M 187.5 2.558594 "/></clipPath><clipPath id="4984c0a1b0"><path d="M 85.167969 225.550781 L 124.902344 225.550781 L 124.902344 329.695312 L 85.167969 329.695312 Z M 85.167969 225.550781 "/></clipPath><clipPath id="c16f0c9ed4"><path d="M 85.167969 251.933594 L 85.167969 303.230469 L 124.902344 329.613281 L 124.902344 225.550781 Z M 85.167969 251.933594 "/></clipPath><clipPath id="9da23c0841"><path d="M 85 181 L 190 181 L 190 268 L 85 268 Z M 85 181 "/></clipPath><clipPath id="adebb45e30"><path d="M 85.171875 251.589844 L 189.21875 181.347656 L 208.851562 210.425781 L 104.800781 280.667969 Z M 85.171875 251.589844 "/></clipPath><clipPath id="ddfd87676c"><path d="M 124.109375 267.632812 L 189.445312 223.527344 L 189.121094 181.414062 L 85.171875 251.589844 Z M 124.109375 267.632812 "/></clipPath><clipPath id="72e534cd51"><path d="M 85 132 L 190 132 L 190 220 L 85 220 Z M 85 132 "/></clipPath><clipPath id="041c0017d5"><path d="M 188.628906 219.757812 L 85.792969 147.753906 L 105.917969 119.011719 L 208.753906 191.019531 Z M 188.628906 219.757812 "/></clipPath><clipPath id="885f33d256"><path d="M 189.667969 177.65625 L 125.097656 132.441406 L 85.890625 147.820312 L 188.628906 219.757812 Z M 189.667969 177.65625 "/></clipPath><clipPath id="5a22ab5751"><path d="M 85.980469 147.636719 L 125.714844 147.636719 L 125.714844 233.46875 L 85.980469 233.46875 Z M 85.980469 147.636719 "/></clipPath><clipPath id="b434f31ddf"><path d="M 125.714844 207.085938 L 125.714844 174.070312 L 85.980469 147.6875 L 85.980469 233.46875 Z M 125.714844 207.085938 "/></clipPath><clipPath id="73872d0731"><path d="M 192 155 L 299 155 L 299 241 L 192 241 Z M 192 155 "/></clipPath><clipPath id="9bb8b0bbd4"><path d="M 192.46875 223.082031 L 298.414062 155.730469 L 317.234375 185.339844 L 211.292969 252.6875 Z M 192.46875 223.082031 "/></clipPath><clipPath id="84f4f9ea4f"><path d="M 230.953125 240.191406 L 297.476562 197.898438 L 298.3125 155.792969 L 192.46875 223.082031 Z M 230.953125 240.191406 "/></clipPath><clipPath id="abe8a36be8"><path d="M 194 106 L 301 106 L 301 198 L 194 198 Z M 194 106 "/></clipPath><clipPath id="94943ffd9e"><path d="M 298.035156 197.632812 L 194.027344 120.453125 L 214.9375 92.277344 L 318.941406 169.457031 Z M 298.035156 197.632812 "/></clipPath><clipPath id="e7aa4fcba0"><path d="M 300.234375 155.574219 L 233.738281 106.230469 L 194.125 120.523438 L 298.035156 197.632812 Z M 300.234375 155.574219 "/></clipPath><clipPath id="6d35d8afda"><path d="M 194.128906 45.390625 L 233.863281 45.390625 L 233.863281 149.535156 L 194.128906 149.535156 Z M 194.128906 45.390625 "/></clipPath><clipPath id="e853eff2fe"><path d="M 194.128906 71.773438 L 194.128906 123.070312 L 233.863281 149.453125 L 233.863281 45.390625 Z M 194.128906 71.773438 "/></clipPath><clipPath id="8c8f4e29fa"><path d="M 192 138 L 233 138 L 233 224 L 192 224 Z M 192 138 "/></clipPath><clipPath id="a8d2c75f45"><path d="M 192.464844 223.625 L 193.132812 138.832031 L 232.386719 139.140625 L 231.71875 223.933594 Z M 192.464844 223.625 "/></clipPath><clipPath id="aa9428c75b"><path d="M 231.925781 197.871094 L 232.179688 165.253906 L 193.132812 138.882812 L 192.464844 223.625 Z M 231.925781 197.871094 "/></clipPath></defs><g id="5d0119bf80"><g clip-rule="nonzero" clip-path="url(#786858b8cf)"><g clip-rule="nonzero" clip-path="url(#7c3d7e14c6)"><path style=" stroke:none;fill-rule:nonzero;fill:#ffffff;fill-opacity:1;" d="M 2.558594 2.558594 L 372.441406 2.558594 L 372.441406 372.441406 L 2.558594 372.441406 Z M 2.558594 2.558594 "/></g></g><g clip-rule="nonzero" clip-path="url(#4984c0a1b0)"><g clip-rule="nonzero" clip-path="url(#c16f0c9ed4)"><path style=" stroke:none;fill-rule:nonzero;fill:#001d3d;fill-opacity:1;" d="M 124.902344 225.550781 L 124.902344 329.542969 L 85.167969 329.542969 L 85.167969 225.550781 Z M 124.902344 225.550781 "/></g></g><g clip-rule="nonzero" clip-path="url(#9da23c0841)"><g clip-rule="nonzero" clip-path="url(#adebb45e30)"><g clip-rule="nonzero" clip-path="url(#ddfd87676c)"><path style=" stroke:none;fill-rule:nonzero;fill:#2d3250;fill-opacity:1;" d="M 85.171875 251.589844 L 189.105469 181.425781 L 208.738281 210.503906 L 104.800781 280.667969 Z M 85.171875 251.589844 "/></g></g></g><g clip-rule="nonzero" clip-path="url(#72e534cd51)"><g clip-rule="nonzero" clip-path="url(#041c0017d5)"><g clip-rule="nonzero" clip-path="url(#885f33d256)"><path style=" stroke:none;fill-rule:nonzero;fill:#001d3d;fill-opacity:1;" d="M 188.628906 219.757812 L 85.90625 147.832031 L 106.03125 119.089844 L 208.753906 191.019531 Z M 188.628906 219.757812 "/></g></g></g><g clip-rule="nonzero" clip-path="url(#5a22ab5751)"><g clip-rule="nonzero" clip-path="url(#b434f31ddf)"><path style=" stroke:none;fill-rule:nonzero;fill:#2d3250;fill-opacity:1;" d="M 85.980469 233.46875 L 85.980469 147.636719 L 125.714844 147.636719 L 125.714844 233.46875 Z M 85.980469 233.46875 "/></g></g><g clip-rule="nonzero" clip-path="url(#73872d0731)"><g clip-rule="nonzero" clip-path="url(#9bb8b0bbd4)"><g clip-rule="nonzero" clip-path="url(#84f4f9ea4f)"><path style=" stroke:none;fill-rule:nonzero;fill:#2d3250;fill-opacity:1;" d="M 192.46875 223.082031 L 298.296875 155.804688 L 317.121094 185.414062 L 211.292969 252.6875 Z M 192.46875 223.082031 "/></g></g></g><g clip-rule="nonzero" clip-path="url(#abe8a36be8)"><g clip-rule="nonzero" clip-path="url(#94943ffd9e)"><g clip-rule="nonzero" clip-path="url(#e7aa4fcba0)"><path style=" stroke:none;fill-rule:nonzero;fill:#001d3d;fill-opacity:1;" d="M 298.035156 197.632812 L 194.136719 120.535156 L 215.046875 92.359375 L 318.941406 169.457031 Z M 298.035156 197.632812 "/></g></g></g><g clip-rule="nonzero" clip-path="url(#6d35d8afda)"><g clip-rule="nonzero" clip-path="url(#e853eff2fe)"><path style=" stroke:none;fill-rule:nonzero;fill:#2d3250;fill-opacity:1;" d="M 233.863281 45.390625 L 233.863281 149.382812 L 194.128906 149.382812 L 194.128906 45.390625 Z M 233.863281 45.390625 "/></g></g><g clip-rule="nonzero" clip-path="url(#8c8f4e29fa)"><g clip-rule="nonzero" clip-path="url(#a8d2c75f45)"><g clip-rule="nonzero" clip-path="url(#aa9428c75b)"><path style=" stroke:none;fill-rule:nonzero;fill:#001d3d;fill-opacity:1;" d="M 192.464844 223.625 L 193.132812 138.832031 L 232.386719 139.140625 L 231.71875 223.933594 Z M 192.464844 223.625 "/></g></g></g></g></svg>