<svg xmlns="http://www.w3.org/2000/svg" xmlns:xlink="http://www.w3.org/1999/xlink" width="500" zoomAndPan="magnify" viewBox="0 0 375 374.999991" height="500" preserveAspectRatio="xMidYMid meet" version="1.2"><defs><clipPath id="48e738aae4"><path d="M 48.804688 236.332031 L 99.800781 236.332031 L 99.800781 369.988281 L 48.804688 369.988281 Z M 48.804688 236.332031 "/></clipPath><clipPath id="0ca857f3b9"><path d="M 48.804688 270.191406 L 48.804688 336.023438 L 99.800781 369.882812 L 99.800781 236.332031 Z M 48.804688 270.191406 "/></clipPath><clipPath id="f472e3377b"><path d="M 48 179 L 183 179 L 183 291 L 48 291 Z M 48 179 "/></clipPath><clipPath id="2c62f8cf6b"><path d="M 48.8125 269.75 L 182.34375 179.605469 L 207.539062 216.921875 L 74.003906 307.070312 Z M 48.8125 269.75 "/></clipPath><clipPath id="9024032e96"><path d="M 98.785156 290.34375 L 182.632812 233.734375 L 182.21875 179.6875 L 48.8125 269.75 Z M 98.785156 290.34375 "/></clipPath><clipPath id="3057939427"><path d="M 49 116 L 183 116 L 183 229 L 49 229 Z M 49 116 "/></clipPath><clipPath id="212ed52a52"><path d="M 181.582031 228.898438 L 49.605469 136.488281 L 75.433594 99.601562 L 207.410156 192.015625 Z M 181.582031 228.898438 "/></clipPath><clipPath id="54cb9a8548"><path d="M 182.917969 174.863281 L 100.046875 116.835938 L 49.730469 136.574219 L 181.582031 228.898438 Z M 182.917969 174.863281 "/></clipPath><clipPath id="788e4c0697"><path d="M 49.851562 136.339844 L 100.84375 136.339844 L 100.84375 246.492188 L 49.851562 246.492188 Z M 49.851562 136.339844 "/></clipPath><clipPath id="c4fb3e1894"><path d="M 100.84375 212.632812 L 100.84375 170.261719 L 49.851562 136.40625 L 49.851562 246.492188 Z M 100.84375 212.632812 "/></clipPath><clipPath id="16645380cc"><path d="M 186 146 L 323 146 L 323 256 L 186 256 Z M 186 146 "/></clipPath><clipPath id="c5245c0728"><path d="M 186.515625 233.164062 L 322.480469 146.726562 L 346.636719 184.726562 L 210.671875 271.160156 Z M 186.515625 233.164062 "/></clipPath><clipPath id="c601520451"><path d="M 235.902344 255.121094 L 321.28125 200.847656 L 322.355469 146.808594 L 186.515625 233.164062 Z M 235.902344 255.121094 "/></clipPath><clipPath id="ec70386364"><path d="M 188 83 L 325 83 L 325 201 L 188 201 Z M 188 83 "/></clipPath><clipPath id="b65c5c498b"><path d="M 321.996094 200.503906 L 188.515625 101.453125 L 215.347656 65.292969 L 348.828125 164.34375 Z M 321.996094 200.503906 "/></clipPath><clipPath id="d3d3b22eb8"><path d="M 324.816406 146.527344 L 239.480469 83.199219 L 188.640625 101.542969 L 321.996094 200.503906 Z M 324.816406 146.527344 "/></clipPath><clipPath id="105926a2e3"><path d="M 188.644531 5.117188 L 239.636719 5.117188 L 239.636719 138.773438 L 188.644531 138.773438 Z M 188.644531 5.117188 "/></clipPath><clipPath id="58d1057e59"><path d="M 188.644531 38.976562 L 188.644531 104.8125 L 239.636719 138.667969 L 239.636719 5.117188 Z M 188.644531 38.976562 "/></clipPath><clipPath id="769e9172bc"><path d="M 186 125 L 238 125 L 238 234 L 186 234 Z M 186 125 "/></clipPath><clipPath id="19b8edf745"><path d="M 186.515625 233.859375 L 187.371094 125.039062 L 237.75 125.433594 L 236.894531 234.257812 Z M 186.515625 233.859375 "/></clipPath><clipPath id="80ac76bf23"><path d="M 237.15625 200.808594 L 237.484375 158.949219 L 187.371094 125.101562 L 186.515625 233.859375 Z M 237.15625 200.808594 "/></clipPath></defs><g id="d73a8b3755"><g clip-rule="nonzero" clip-path="url(#48e738aae4)"><g clip-rule="nonzero" clip-path="url(#0ca857f3b9)"><path style=" stroke:none;fill-rule:nonzero;fill:#001d3d;fill-opacity:1;" d="M 99.800781 236.332031 L 99.800781 369.789062 L 48.804688 369.789062 L 48.804688 236.332031 Z M 99.800781 236.332031 "/></g></g><g clip-rule="nonzero" clip-path="url(#f472e3377b)"><g clip-rule="nonzero" clip-path="url(#2c62f8cf6b)"><g clip-rule="nonzero" clip-path="url(#9024032e96)"><path style=" stroke:none;fill-rule:nonzero;fill:#2d3250;fill-opacity:1;" d="M 48.8125 269.75 L 182.199219 179.703125 L 207.394531 217.023438 L 74.003906 307.070312 Z M 48.8125 269.75 "/></g></g></g><g clip-rule="nonzero" clip-path="url(#3057939427)"><g clip-rule="nonzero" clip-path="url(#212ed52a52)"><g clip-rule="nonzero" clip-path="url(#54cb9a8548)"><path style=" stroke:none;fill-rule:nonzero;fill:#001d3d;fill-opacity:1;" d="M 181.582031 228.898438 L 49.75 136.589844 L 75.578125 99.703125 L 207.410156 192.015625 Z M 181.582031 228.898438 "/></g></g></g><g clip-rule="nonzero" clip-path="url(#788e4c0697)"><g clip-rule="nonzero" clip-path="url(#c4fb3e1894)"><path style=" stroke:none;fill-rule:nonzero;fill:#2d3250;fill-opacity:1;" d="M 49.851562 246.492188 L 49.851562 136.339844 L 100.84375 136.339844 L 100.84375 246.492188 Z M 49.851562 246.492188 "/></g></g><g clip-rule="nonzero" clip-path="url(#16645380cc)"><g clip-rule="nonzero" clip-path="url(#c5245c0728)"><g clip-rule="nonzero" clip-path="url(#c601520451)"><path style=" stroke:none;fill-rule:nonzero;fill:#2d3250;fill-opacity:1;" d="M 186.515625 233.164062 L 322.332031 146.820312 L 346.488281 184.820312 L 210.671875 271.160156 Z M 186.515625 233.164062 "/></g></g></g><g clip-rule="nonzero" clip-path="url(#ec70386364)"><g clip-rule="nonzero" clip-path="url(#b65c5c498b)"><g clip-rule="nonzero" clip-path="url(#d3d3b22eb8)"><path style=" stroke:none;fill-rule:nonzero;fill:#001d3d;fill-opacity:1;" d="M 321.996094 200.503906 L 188.660156 101.558594 L 215.492188 65.398438 L 348.828125 164.34375 Z M 321.996094 200.503906 "/></g></g></g><g clip-rule="nonzero" clip-path="url(#105926a2e3)"><g clip-rule="nonzero" clip-path="url(#58d1057e59)"><path style=" stroke:none;fill-rule:nonzero;fill:#2d3250;fill-opacity:1;" d="M 239.636719 5.117188 L 239.636719 138.574219 L 188.644531 138.574219 L 188.644531 5.117188 Z M 239.636719 5.117188 "/></g></g><g clip-rule="nonzero" clip-path="url(#769e9172bc)"><g clip-rule="nonzero" clip-path="url(#19b8edf745)"><g clip-rule="nonzero" clip-path="url(#80ac76bf23)"><path style=" stroke:none;fill-rule:nonzero;fill:#001d3d;fill-opacity:1;" d="M 186.515625 233.859375 L 187.371094 125.039062 L 237.75 125.433594 L 236.894531 234.257812 Z M 186.515625 233.859375 "/></g></g></g></g></svg>