<svg xmlns="http://www.w3.org/2000/svg" xmlns:xlink="http://www.w3.org/1999/xlink" width="500" zoomAndPan="magnify" viewBox="0 0 375 374.999991" height="500" preserveAspectRatio="xMidYMid meet" version="1.2"><defs><clipPath id="e2cd753f38"><path d="M 44.175781 236.824219 L 95.683594 236.824219 L 95.683594 371.832031 L 44.175781 371.832031 Z M 44.175781 236.824219 "/></clipPath><clipPath id="40a4040753"><path d="M 44.175781 271.027344 L 44.175781 337.527344 L 95.683594 371.726562 L 95.683594 236.824219 Z M 44.175781 271.027344 "/></clipPath><clipPath id="708617a077"><path d="M 44 179 L 180 179 L 180 292 L 44 292 Z M 44 179 "/></clipPath><clipPath id="0e637ef0bb"><path d="M 44.183594 270.582031 L 179.066406 179.523438 L 204.511719 217.222656 L 69.632812 308.28125 Z M 44.183594 270.582031 "/></clipPath><clipPath id="33c6cb1f37"><path d="M 94.660156 291.382812 L 179.355469 234.203125 L 178.9375 179.609375 L 44.183594 270.582031 Z M 94.660156 291.382812 "/></clipPath><clipPath id="6a43ee3f23"><path d="M 45 116 L 180 116 L 180 230 L 45 230 Z M 45 116 "/></clipPath><clipPath id="306542f6c4"><path d="M 178.296875 229.320312 L 44.988281 135.972656 L 71.074219 98.71875 L 204.382812 192.0625 Z M 178.296875 229.320312 "/></clipPath><clipPath id="bad4cd9e24"><path d="M 179.644531 174.738281 L 95.9375 116.125 L 45.109375 136.0625 L 178.296875 229.320312 Z M 179.644531 174.738281 "/></clipPath><clipPath id="1e146cb3e5"><path d="M 45.234375 135.824219 L 96.742188 135.824219 L 96.742188 247.089844 L 45.234375 247.089844 Z M 45.234375 135.824219 "/></clipPath><clipPath id="f49efcb8f0"><path d="M 96.742188 212.886719 L 96.742188 170.089844 L 45.234375 135.890625 L 45.234375 247.089844 Z M 96.742188 212.886719 "/></clipPath><clipPath id="c0b274bfd8"><path d="M 183 146 L 321 146 L 321 256 L 183 256 Z M 183 146 "/></clipPath><clipPath id="00255c90dd"><path d="M 183.277344 233.625 L 320.617188 146.316406 L 345.019531 184.699219 L 207.679688 272.007812 Z M 183.277344 233.625 "/></clipPath><clipPath id="c913b5436d"><path d="M 233.164062 255.804688 L 319.40625 200.980469 L 320.488281 146.398438 L 183.277344 233.625 Z M 233.164062 255.804688 "/></clipPath><clipPath id="94b1527b8a"><path d="M 185 82 L 323 82 L 323 201 L 185 201 Z M 185 82 "/></clipPath><clipPath id="1b48cbc7a0"><path d="M 320.125 200.632812 L 185.296875 100.585938 L 212.402344 64.058594 L 347.226562 164.109375 Z M 320.125 200.632812 "/></clipPath><clipPath id="ea42aea69b"><path d="M 322.976562 146.113281 L 236.777344 82.148438 L 185.421875 100.675781 L 320.125 200.632812 Z M 322.976562 146.113281 "/></clipPath><clipPath id="7e1b6a64de"><path d="M 185.429688 3.277344 L 236.9375 3.277344 L 236.9375 138.285156 L 185.429688 138.285156 Z M 185.429688 3.277344 "/></clipPath><clipPath id="e70a40a766"><path d="M 185.429688 37.476562 L 185.429688 103.976562 L 236.9375 138.175781 L 236.9375 3.277344 Z M 185.429688 37.476562 "/></clipPath><clipPath id="c4ccbb0275"><path d="M 183 124 L 235 124 L 235 235 L 183 235 Z M 183 124 "/></clipPath><clipPath id="a4ea39c607"><path d="M 183.277344 234.332031 L 184.140625 124.414062 L 235.027344 124.8125 L 234.164062 234.734375 Z M 183.277344 234.332031 "/></clipPath><clipPath id="9792e67148"><path d="M 234.429688 200.945312 L 234.761719 158.664062 L 184.140625 124.476562 L 183.277344 234.332031 Z M 234.429688 200.945312 "/></clipPath></defs><g id="5d6162903e"><g clip-rule="nonzero" clip-path="url(#e2cd753f38)"><g clip-rule="nonzero" clip-path="url(#40a4040753)"><path style=" stroke:none;fill-rule:nonzero;fill:#ffffff;fill-opacity:1;" d="M 95.683594 236.824219 L 95.683594 371.632812 L 44.175781 371.632812 L 44.175781 236.824219 Z M 95.683594 236.824219 "/></g></g><g clip-rule="nonzero" clip-path="url(#708617a077)"><g clip-rule="nonzero" clip-path="url(#0e637ef0bb)"><g clip-rule="nonzero" clip-path="url(#33c6cb1f37)"><path style=" stroke:none;fill-rule:nonzero;fill:#d9d9d9;fill-opacity:1;" d="M 44.183594 270.582031 L 178.917969 179.625 L 204.367188 217.320312 L 69.632812 308.28125 Z M 44.183594 270.582031 "/></g></g></g><g clip-rule="nonzero" clip-path="url(#6a43ee3f23)"><g clip-rule="nonzero" clip-path="url(#306542f6c4)"><g clip-rule="nonzero" clip-path="url(#bad4cd9e24)"><path style=" stroke:none;fill-rule:nonzero;fill:#ffffff;fill-opacity:1;" d="M 178.296875 229.320312 L 45.132812 136.074219 L 71.21875 98.820312 L 204.382812 192.0625 Z M 178.296875 229.320312 "/></g></g></g><g clip-rule="nonzero" clip-path="url(#1e146cb3e5)"><g clip-rule="nonzero" clip-path="url(#f49efcb8f0)"><path style=" stroke:none;fill-rule:nonzero;fill:#d9d9d9;fill-opacity:1;" d="M 45.234375 247.089844 L 45.234375 135.824219 L 96.742188 135.824219 L 96.742188 247.089844 Z M 45.234375 247.089844 "/></g></g><g clip-rule="nonzero" clip-path="url(#c0b274bfd8)"><g clip-rule="nonzero" clip-path="url(#00255c90dd)"><g clip-rule="nonzero" clip-path="url(#c913b5436d)"><path style=" stroke:none;fill-rule:nonzero;fill:#d9d9d9;fill-opacity:1;" d="M 183.277344 233.625 L 320.46875 146.410156 L 344.867188 184.792969 L 207.679688 272.007812 Z M 183.277344 233.625 "/></g></g></g><g clip-rule="nonzero" clip-path="url(#94b1527b8a)"><g clip-rule="nonzero" clip-path="url(#1b48cbc7a0)"><g clip-rule="nonzero" clip-path="url(#ea42aea69b)"><path style=" stroke:none;fill-rule:nonzero;fill:#ffffff;fill-opacity:1;" d="M 320.125 200.632812 L 185.441406 100.691406 L 212.542969 64.164062 L 347.226562 164.109375 Z M 320.125 200.632812 "/></g></g></g><g clip-rule="nonzero" clip-path="url(#7e1b6a64de)"><g clip-rule="nonzero" clip-path="url(#e70a40a766)"><path style=" stroke:none;fill-rule:nonzero;fill:#d9d9d9;fill-opacity:1;" d="M 236.9375 3.277344 L 236.9375 138.082031 L 185.429688 138.082031 L 185.429688 3.277344 Z M 236.9375 3.277344 "/></g></g><g clip-rule="nonzero" clip-path="url(#c4ccbb0275)"><g clip-rule="nonzero" clip-path="url(#a4ea39c607)"><g clip-rule="nonzero" clip-path="url(#9792e67148)"><path style=" stroke:none;fill-rule:nonzero;fill:#ffffff;fill-opacity:1;" d="M 183.277344 234.332031 L 184.140625 124.414062 L 235.027344 124.8125 L 234.164062 234.734375 Z M 183.277344 234.332031 "/></g></g></g></g></svg>